HIERARCHY
ROOT Hips
{
    OFFSET   0.000000   0.000000   0.000000
    CHANNELS 6 Xposition Yposition Zposition Zrotation Xrotation Yrotation
    JOINT Chest
    {
        OFFSET   0.000000   8.007230   0.000000
        CHANNELS 3 Zrotation Xrotation Yrotation
        JOINT Chest2
        {
            OFFSET   0.000000  22.077100   0.000000
            CHANNELS 3 Zrotation Xrotation Yrotation
            JOINT Neck
            {
                OFFSET   0.000000  23.254800   0.000000
                CHANNELS 3 Zrotation Xrotation Yrotation
                JOINT Head
                {
                    OFFSET   0.000010  14.370000   1.956600
                    CHANNELS 3 Zrotation Xrotation Yrotation
                    End Site
                    {
                        OFFSET   0.000000  19.566000   0.000000
                    }
                }
            }
            JOINT LeftCollar
            {
                OFFSET   3.911900  19.017000  -0.467062
                CHANNELS 3 Zrotation Xrotation Yrotation
                JOINT LeftShoulder
                {
                    OFFSET  10.383700   0.000000   0.000000
                    CHANNELS 3 Zrotation Xrotation Yrotation
                    JOINT LeftElbow
                    {
                        OFFSET  26.662100   0.001193   0.000835
                        CHANNELS 3 Zrotation Xrotation Yrotation
                        JOINT LeftWrist
                        {
                            OFFSET  28.869000  -0.000058  -0.000075
                            CHANNELS 3 Zrotation Xrotation Yrotation
                            JOINT LeftFinger0
                            {
                                OFFSET   2.044660  -2.323460   3.252850
                                CHANNELS 3 Zrotation Xrotation Yrotation
                                JOINT LeftFinger01
                                {
                                    OFFSET   3.088130   0.000000   0.000000
                                    CHANNELS 3 Zrotation Xrotation Yrotation
                                    JOINT LeftFinger02
                                    {
                                        OFFSET   2.639450   0.000000   0.000000
                                        CHANNELS 3 Zrotation Xrotation Yrotation
                                        End Site
                                        {
                                            OFFSET   2.582190   0.000000   0.000000
                                        }
                                    }
                                }
                            }
                            JOINT LeftFinger1
                            {
                                OFFSET   8.364480   0.000000   3.252850
                                CHANNELS 3 Zrotation Xrotation Yrotation
                                JOINT LeftFinger11
                                {
                                    OFFSET   4.646920   0.000000   0.000000
                                    CHANNELS 3 Zrotation Xrotation Yrotation
                                    JOINT LeftFinger12
                                    {
                                        OFFSET   2.323460   0.000000   0.000000
                                        CHANNELS 3 Zrotation Xrotation Yrotation
                                        End Site
                                        {
                                            OFFSET   2.273050   0.000000   0.000000
                                        }
                                    }
                                }
                            }
                            JOINT LeftFinger2
                            {
                                OFFSET   8.364490   0.000016   1.078090
                                CHANNELS 3 Zrotation Xrotation Yrotation
                                JOINT LeftFinger21
                                {
                                    OFFSET   5.111620   0.000000   0.000000
                                    CHANNELS 3 Zrotation Xrotation Yrotation
                                    JOINT LeftFinger22
                                    {
                                        OFFSET   2.788150   0.000012   0.000000
                                        CHANNELS 3 Zrotation Xrotation Yrotation
                                        End Site
                                        {
                                            OFFSET   2.727660   0.000000   0.000000
                                        }
                                    }
                                }
                            }
                            JOINT LeftFinger3
                            {
                                OFFSET   7.899780   0.000014  -1.078090
                                CHANNELS 3 Zrotation Xrotation Yrotation
                                JOINT LeftFinger31
                                {
                                    OFFSET   4.646930   0.000000   0.000000
                                    CHANNELS 3 Zrotation Xrotation Yrotation
                                    JOINT LeftFinger32
                                    {
                                        OFFSET   2.323470   0.000000   0.000000
                                        CHANNELS 3 Zrotation Xrotation Yrotation
                                        End Site
                                        {
                                            OFFSET   2.273050   0.000000   0.000000
                                        }
                                    }
                                }
                            }
                            JOINT LeftFinger4
                            {
                                OFFSET   7.435090   0.000000  -3.252850
                                CHANNELS 3 Zrotation Xrotation Yrotation
                                JOINT LeftFinger41
                                {
                                    OFFSET   3.717550   0.000000   0.000000
                                    CHANNELS 3 Zrotation Xrotation Yrotation
                                    JOINT LeftFinger42
                                    {
                                        OFFSET   1.858770   0.000000   0.000000
                                        CHANNELS 3 Zrotation Xrotation Yrotation
                                        End Site
                                        {
                                            OFFSET   1.818440   0.000000   0.000000
                                        }
                                    }
                                }
                            }
                        }
                    }
                }
            }
            JOINT RightCollar
            {
                OFFSET  -3.911900  19.017000  -0.467063
                CHANNELS 3 Zrotation Xrotation Yrotation
                JOINT RightShoulder
                {
                    OFFSET -10.383700   0.000023   0.000000
                    CHANNELS 3 Zrotation Xrotation Yrotation
                    JOINT RightElbow
                    {
                        OFFSET -26.662100   0.001246   0.001011
                        CHANNELS 3 Zrotation Xrotation Yrotation
                        JOINT RightWrist
                        {
                            OFFSET -28.869000  -0.000026  -0.000078
                            CHANNELS 3 Zrotation Xrotation Yrotation
                            JOINT RightFinger0
                            {
                                OFFSET  -2.044660  -2.323490   3.252850
                                CHANNELS 3 Zrotation Xrotation Yrotation
                                JOINT RightFinger01
                                {
                                    OFFSET  -3.088130   0.000000   0.000000
                                    CHANNELS 3 Zrotation Xrotation Yrotation
                                    JOINT RightFinger02
                                    {
                                        OFFSET  -2.639460   0.000000   0.000000
                                        CHANNELS 3 Zrotation Xrotation Yrotation
                                        End Site
                                        {
                                            OFFSET  -2.582190   0.000000   0.000000
                                        }
                                    }
                                }
                            }
                            JOINT RightFinger1
                            {
                                OFFSET  -8.364480   0.000000   3.252850
                                CHANNELS 3 Zrotation Xrotation Yrotation
                                JOINT RightFinger11
                                {
                                    OFFSET  -4.646920   0.000000   0.000000
                                    CHANNELS 3 Zrotation Xrotation Yrotation
                                    JOINT RightFinger12
                                    {
                                        OFFSET  -2.323470   0.000000   0.000000
                                        CHANNELS 3 Zrotation Xrotation Yrotation
                                        End Site
                                        {
                                            OFFSET  -2.273050   0.000000   0.000000
                                        }
                                    }
                                }
                            }
                            JOINT RightFinger2
                            {
                                OFFSET  -8.364480   0.000000   1.078090
                                CHANNELS 3 Zrotation Xrotation Yrotation
                                JOINT RightFinger21
                                {
                                    OFFSET  -5.111620   0.000000   0.000000
                                    CHANNELS 3 Zrotation Xrotation Yrotation
                                    JOINT RightFinger22
                                    {
                                        OFFSET  -2.788160   0.000000   0.000000
                                        CHANNELS 3 Zrotation Xrotation Yrotation
                                        End Site
                                        {
                                            OFFSET  -2.727660   0.000000   0.000000
                                        }
                                    }
                                }
                            }
                            JOINT RightFinger3
                            {
                                OFFSET  -7.899780   0.000000  -1.078090
                                CHANNELS 3 Zrotation Xrotation Yrotation
                                JOINT RightFinger31
                                {
                                    OFFSET  -4.646930   0.000000   0.000000
                                    CHANNELS 3 Zrotation Xrotation Yrotation
                                    JOINT RightFinger32
                                    {
                                        OFFSET  -2.323470   0.000000   0.000000
                                        CHANNELS 3 Zrotation Xrotation Yrotation
                                        End Site
                                        {
                                            OFFSET  -2.273050   0.000000   0.000000
                                        }
                                    }
                                }
                            }
                            JOINT RightFinger4
                            {
                                OFFSET  -7.435090   0.000000  -3.252850
                                CHANNELS 3 Zrotation Xrotation Yrotation
                                JOINT RightFinger41
                                {
                                    OFFSET  -3.717550   0.000000   0.000000
                                    CHANNELS 3 Zrotation Xrotation Yrotation
                                    JOINT RightFinger42
                                    {
                                        OFFSET  -1.858760   0.000000   0.000000
                                        CHANNELS 3 Zrotation Xrotation Yrotation
                                        End Site
                                        {
                                            OFFSET  -1.818440   0.000000   0.000000
                                        }
                                    }
                                }
                            }
                        }
                    }
                }
            }
        }
    }
    JOINT LeftHip
    {
        OFFSET   9.783010   0.000000   0.000000
        CHANNELS 3 Zrotation Xrotation Yrotation
        JOINT LeftKnee
        {
            OFFSET   0.000073 -41.789100   0.001749
            CHANNELS 3 Zrotation Xrotation Yrotation
            JOINT LeftAnkle
            {
                OFFSET   0.000111 -41.133200  -0.000179
                CHANNELS 3 Zrotation Xrotation Yrotation
                JOINT LeftToe
                {
                    OFFSET   0.000000  -6.358960  14.674500
                    CHANNELS 3 Zrotation Xrotation Yrotation
                    End Site
                    {
                        OFFSET   0.000000   0.000000   3.913200
                    }
                }
            }
        }
    }
    JOINT RightHip
    {
        OFFSET  -9.783010   0.000000   0.000000
        CHANNELS 3 Zrotation Xrotation Yrotation
        JOINT RightKnee
        {
            OFFSET   0.000424 -41.789200   0.005205
            CHANNELS 3 Zrotation Xrotation Yrotation
            JOINT RightAnkle
            {
                OFFSET   0.000000 -41.133200  -0.000155
                CHANNELS 3 Zrotation Xrotation Yrotation
                JOINT RightToe
                {
                    OFFSET   0.000000  -6.358960  14.674500
                    CHANNELS 3 Zrotation Xrotation Yrotation
                    End Site
                    {
                        OFFSET   0.000000   0.000000   3.913200
                    }
                }
            }
        }
    }
}
MOTION
Frames: 4
Frame Time:   0.016667
  4.406520  89.268000   2.180140  -5.229270 -25.334800  -0.466226  -0.009531  13.546000   6.069640  -1.612840  27.009000  12.697800   0.450905   0.595666  -0.006043   0.741727   1.207930 -10.733000  -8.349760 -12.419500  -4.668790 -66.878300  19.716500  -6.462930   1.258430  -2.089520 -16.591800  12.169200  -3.004820  -1.439340  41.377600  34.615500 -72.537700 -26.234100  -0.000306  -0.000074  -8.117050   0.013095  -0.048854 -27.469700   5.404860 -10.270900 -22.872800  -0.042084   0.147051 -16.010900  -0.120066   0.043997 -27.783000  -0.753435   1.429670 -30.739700  -0.002831   0.003597 -20.472700  -0.002597  -0.063817 -28.219000  -0.764288   1.423900 -33.626000  -0.001742   0.000476 -22.395000  -0.002932   0.005658 -30.124900  -0.811028   1.397630 -45.202100  -0.001342  -0.000835 -30.104600  -0.003223   0.008822   4.228580  -9.841470  10.051500  31.197200 -22.055900  73.206300 -40.833100 -35.214800  29.920600  36.910100 -50.184400  40.049600 -21.141500  50.023300  61.225400  78.872700  -0.005276   0.012248  45.869200   0.011064   0.008356  89.001100   5.002510   0.083060  77.709500   0.009162   0.009574  58.282000   0.009755   0.004364  89.000000   0.001577  -0.003002  99.228900   0.011317   0.005895  74.421600   0.006995  -0.007214  88.995700  -4.996800  -0.092956 101.609000   0.017991   0.006909  76.207100   0.008623  -0.012664  88.983900  -9.996900  -0.180660 110.000000  -0.000592  -0.004576  80.000000  -0.004184   0.003720   2.390040  26.871200   0.415047   0.741172   1.185150   8.113180   0.630651  -4.167250   0.851014   0.000000   0.000000  -0.000000   2.096560  19.228100  -3.075450   0.394518  17.683400 -26.478500   5.410150  -7.692450  16.244400  -0.000000   0.000000   0.000000
  4.431450  89.274700   2.117260  -5.236420 -25.155000  -0.465526  -0.013281  13.504800   6.041260  -1.607330  26.927100  12.635700   0.430190   0.493610  -0.005724   0.707204   1.001220 -10.587700  -8.381220 -12.396700  -4.739170 -66.794500  19.568400  -6.361730   1.274910  -2.015530 -16.761700  12.160600  -3.130680  -1.511060  41.402200  34.666200 -72.636100 -26.220500  -0.000305  -0.000062  -8.110260  -0.007090  -0.020105 -27.476600   5.373560 -10.208600 -22.873100  -0.236572   0.166000 -16.011700  -0.215308  -0.032348 -27.792000  -0.731678   1.387860 -30.788400  -0.002831   0.003596 -20.505100  -0.002597  -0.063768 -28.221400  -0.742076   1.382330 -33.641900  -0.001743   0.000476 -22.405500  -0.002930  -0.055642 -30.164700  -0.788601   1.356290 -45.261100  -0.001343  -0.000836 -30.143800  -0.003222   0.008864   4.355420  -9.876080  10.095700  30.492900 -21.881600  72.562200 -40.957000 -34.879500  29.148900  36.442800 -50.360800  39.444300 -21.217300  49.880800  60.941000  78.638100  -0.005886   0.017081  45.713000   0.011310   0.011709  89.001100   5.002490   0.083057  77.314300   0.009528   0.009943  57.985600   0.010092   0.004546  89.000000   0.001542  -0.003120  98.840300   0.012044   0.006016  74.130200   0.007129  -0.008171  88.995700  -4.996790  -0.092987 100.981000   0.022771   0.007278  75.735800   0.008989  -0.013117  88.983900  -9.996860  -0.180673 110.000000  -0.000541  -0.004591  80.000000  -0.004148   0.003743   2.377330  26.640200   0.379604   0.753682   1.184820   8.102290   0.605174  -4.129090   0.910729   0.000000   0.000000   0.000000   2.083670  19.165000  -3.093930   0.363438  17.395700 -26.499700   5.390300  -7.607880  16.276700   0.000000   0.000000  -0.000000
  4.458460  89.279700   2.051430  -5.259040 -24.963500  -0.525112  -0.016512  13.458700   6.005250  -1.598160  26.836000  12.557200   0.402827   0.385701  -0.005386   0.660654   0.782323 -10.394700  -8.396540 -12.370300  -4.784650 -66.715400  19.454900  -6.255730   1.287440  -1.950850 -16.961300  12.161500  -3.271720  -1.581770  41.404300  34.678700 -72.665100 -26.224900  -0.000309  -0.000071  -8.112460  -0.004691  -0.005251 -27.492000   5.375750 -10.204900 -22.887900  -0.291818   0.151648 -16.022300  -0.221794  -0.073576 -27.799800  -0.726493   1.377740 -30.831700  -0.002830   0.003600 -20.533900  -0.002598  -0.097556 -28.228600  -0.736801   1.372260 -33.700600  -0.001740   0.000476 -22.444600  -0.002935  -0.090696 -30.204200  -0.783690   1.346130 -45.320200  -0.001341  -0.000836 -30.183200  -0.003222   0.008876   4.519700  -9.934650  10.170900  29.705000 -21.603800  71.765300 -40.977200 -34.420400  28.459200  35.728000 -50.504200  38.563600 -21.524800  49.605200  60.580000  77.901000  -0.006565   0.016203  45.222100   0.011554   0.011477  89.001100   5.002480   0.083050  76.774900   0.009846   0.010328  57.581100   0.010472   0.004716  89.000000   0.001507  -0.003238  98.342900   0.012346   0.006075  73.757100   0.007190  -0.010282  88.995700  -4.996780  -0.093017 100.093000   0.021841   0.007587  75.069700   0.009332  -0.013215  88.983900  -9.996820  -0.180697 110.000000  -0.000489  -0.004612  80.000000  -0.004108   0.003769   2.357900  26.402400   0.351312   0.763094   1.181230   8.118640   0.583065  -4.088890   0.986677  -0.000000   0.000000  -0.000000   2.090220  19.077500  -3.122210   0.288118  17.103600 -26.435200   5.365130  -7.509420  16.272100   0.000000   0.000000   0.000000
  4.483380  89.283100   1.985120  -5.304550 -24.756400  -0.649706  -0.018216  13.404000   5.966060  -1.583860  26.727700  12.470900   0.370871   0.276380  -0.005019   0.609314   0.560524 -10.168300  -8.405670 -12.326400  -4.826560 -66.638900  19.355600  -6.143790   1.306050  -1.868270 -17.186700  12.161400  -3.440560  -1.650270  41.398500  34.700200 -72.714300 -26.229300  -0.000313  -0.000089  -8.114660   0.005616  -0.000090 -27.558700   5.390670 -10.204600 -22.941400  -0.299711   0.114174 -16.059800  -0.222720  -0.091291 -27.812200  -0.720943   1.366330 -30.902700  -0.002828   0.003603 -20.581200  -0.002600  -0.138416 -28.243400  -0.731207   1.360880 -33.817700  -0.001738   0.000477 -22.522600  -0.002940  -0.106480 -30.260300  -0.778780   1.334140 -45.404200  -0.001339  -0.000835 -30.239100  -0.003221   0.008878   4.692800  -9.995720  10.222500  28.902400 -21.229200  70.882500 -40.905600 -33.824600  27.844800  34.896600 -50.634400  37.569900 -21.958100  49.210100  60.288100  76.850000  -0.008543   0.015324  44.522100   0.011801   0.011244  89.001100   5.002450   0.083045  76.066000   0.011024   0.011806  57.049500   0.011959   0.004886  89.000000   0.001468  -0.003354  97.690400   0.013141   0.006248  73.267800   0.007367  -0.012712  88.995700  -4.996770  -0.093045  98.974900   0.020910   0.008718  74.231100   0.010625  -0.013312  88.983900  -9.996780  -0.180720 110.000000  -0.000438  -0.004633  80.000000  -0.004068   0.003793   2.339930  26.161400   0.318288   0.769644   1.163470   8.163570   0.556274  -4.046400   1.081460   0.000000   0.000000  -0.000000   2.105740  18.970700  -3.149020   0.187479  16.799900 -26.322200   5.337900  -7.399780  16.261900  -0.000000   0.000000  -0.000000
